# xmcd
#
# Track frame offsets:
#	150
#	16651
#	34678
#	49625
#
# Disc length: 884 seconds
#
# Revision: 0
# Processed by: cddbd v1.5.2PL0 Copyright (c) Steve Scherf et al.
# Submitted via: audiograbber 1.83.01
#
DISCID=21037204
DTITLE=Rhein Rebellen - Einmol FC immer FC
DYEAR=2010
DGENRE=
TTITLE0=Einmol FC - Immer FC
TTITLE1=Ich han dich immer noch jän
TTITLE2=Jew uns noch e'Ründche
TTITLE3=Bliev bei mir
EXTD=
EXTT0=
EXTT1=
EXTT2=
EXTT3=
PLAYORDER=
